<svg width="40" height="40" viewBox="0 0 40 40" fill="none" xmlns="http://www.w3.org/2000/svg" class="h-15 w-15"><path d="M33.8498 12.3006C35.0662 12.3006 36.2554 11.9399 37.2668 11.2641C38.2782 10.5883 39.0665 9.62777 39.532 8.50394C39.9975 7.38012 40.1193 6.1435 39.882 4.95045C39.6447 3.75741 39.0589 2.66153 38.1988 1.80139C37.3386 0.941252 36.2427 0.355491 35.0497 0.118179C33.8567 -0.119132 32.62 0.00266485 31.4962 0.468168C30.3724 0.933671 29.4118 1.72197 28.736 2.73339C28.0602 3.7448 27.6995 4.9339 27.6995 6.15032C27.6995 6.958 27.8585 7.75779 28.1676 8.504C28.4766 9.25022 28.9297 9.92824 29.5008 10.4994C30.0719 11.0705 30.7499 11.5235 31.4962 11.8326C32.2424 12.1416 33.0421 12.3007 33.8498 12.3006ZM14.9914 40.0001C12.0264 40.0001 9.12796 39.1209 6.66264 37.4736C4.19731 35.8263 2.27582 33.485 1.14116 30.7457C0.00649385 28.0063 -0.290385 24.9921 0.288065 22.084C0.866514 19.176 2.29431 16.5047 4.3909 14.4082C6.48749 12.3116 9.15871 10.8838 12.0668 10.3053C14.9748 9.72689 17.9891 10.0238 20.7284 11.1585C23.4677 12.2931 25.8091 14.2146 27.4563 16.6799C29.1036 19.1453 29.9828 22.0437 29.9828 25.0087C29.9829 26.9775 29.5951 28.9269 28.8418 30.7458C28.0884 32.5646 26.9841 34.2173 25.5921 35.6094C24.2 37.0014 22.5473 38.1057 20.7284 38.8591C18.9096 39.6124 16.9601 40.0002 14.9914 40.0001Z" fill="#7D00FF"></path></svg>